<?xml version="1.0" encoding="utf-8"?>
<!-- Generator: Adobe Illustrator 19.0.0, SVG Export Plug-In . SVG Version: 6.00 Build 0)  -->
<svg version="1.1" id="Layer_1" xmlns:x="&ns_extend;" xmlns:i="&ns_ai;" xmlns:graph="&ns_graphs;"
	 xmlns="http://www.w3.org/2000/svg" xmlns:xlink="http://www.w3.org/1999/xlink" xmlns:a="http://ns.adobe.com/AdobeSVGViewerExtensions/3.0/"
	 x="0px" y="0px" viewBox="0 0 216 151.2" enable-background="new 0 0 216 151.2" xml:space="preserve">
<g id="XMLID_8967_">
	<rect id="XMLID_8966_" opacity="0.98" fill="#231F20" width="216" height="151.2"/>
	<g id="XMLID_8965_">
		<g id="XMLID_11708_">
			<polygon id="XMLID_9118_" fill="#86949F" points="216,151.2 216,130.8 199.4,121.4 199.4,151.2 			"/>
			<polygon id="XMLID_9016_" fill="#636D78" points="216,112 199.4,121.4 216,130.8 			"/>
		</g>
		<g id="XMLID_11704_">
			<polygon id="XMLID_9015_" fill="#232335" points="107.2,151.2 54.8,121.4 54.8,151.2 			"/>
			<polygon id="XMLID_9144_" fill="#272738" points="199.4,151.2 199.4,121.4 147,151.2 			"/>
			<polygon id="XMLID_9145_" points="147,151.2 199.4,121.4 127.1,80.4 54.8,121.4 107.2,151.2 			"/>
		</g>
		<g id="XMLID_11700_">
			<polygon id="XMLID_9135_" points="127.1,0 127.1,80.4 199.4,121.4 199.4,39.3 130.1,0 			"/>
			<polygon id="XMLID_9017_" fill="#18182A" points="216,29.9 199.4,39.3 199.4,121.4 216,112 			"/>
			<polygon id="XMLID_9136_" fill="#18182D" points="130.1,0 199.4,39.3 216,29.9 216,0 			"/>
		</g>
		<g id="XMLID_11696_">
			<polygon id="XMLID_9019_" fill="#18182D" points="216,48.7 199.4,39.3 199.4,121.4 216,130.8 			"/>
			<polygon id="XMLID_9020_" fill="#2D2D3D" points="216,29.9 199.4,39.3 216,48.7 			"/>
		</g>
		<g id="XMLID_11692_">
			<polygon id="XMLID_9021_" fill="#38384C" points="216,151.2 216,130.8 199.4,121.4 147,151.2 			"/>
		</g>
		<g id="XMLID_11688_">
			<polygon id="XMLID_9022_" fill="#2D2D3D" points="216,151.2 216,130.8 199.4,121.4 199.4,151.2 			"/>
			<polygon id="XMLID_9024_" fill="#18182D" points="216,112 199.4,121.4 216,130.8 			"/>
		</g>
		<g id="XMLID_11684_">
			<polygon id="XMLID_9023_" fill="#232335" points="163.3,151.2 163.3,142 127.1,121.4 127.1,151.2 			"/>
			<polygon id="XMLID_9146_" fill="#0A0A1C" points="199.4,151.2 199.4,121.4 163.3,142 163.3,151.2 			"/>
			<polygon id="XMLID_11685_" fill="#202030" points="163.3,142 127.1,121.4 163.3,100.9 199.4,121.4 			"/>
		</g>
		<g id="XMLID_11680_">
			<polygon id="XMLID_11683_" points="199.4,80.4 199.4,121.4 163.3,100.9 163.3,59.9 			"/>
			<polygon id="XMLID_9025_" fill="#0A0A20" points="216,71 199.4,80.4 199.4,121.4 216,112 			"/>
			<polygon id="XMLID_9026_" fill="#000018" points="216,48.7 199.4,39.3 163.3,59.9 199.4,80.4 216,71 			"/>
		</g>
		<g id="XMLID_11676_">
			<polygon id="XMLID_9027_" fill="#141423" points="216,89.8 199.4,80.4 199.4,121.4 216,130.8 			"/>
			<polygon id="XMLID_9028_" fill="#202030" points="216,71 199.4,80.4 216,89.8 			"/>
		</g>
		<g id="XMLID_11672_">
			<polygon id="XMLID_11675_" fill="#0A0A1C" points="163.3,100.9 163.3,142 127.1,121.4 127.1,80.4 			"/>
			<polygon id="XMLID_11674_" points="163.3,100.9 199.4,80.4 199.4,121.4 163.3,142 			"/>
			<polygon id="XMLID_11673_" points="163.3,100.9 127.1,80.4 163.3,59.9 199.4,80.4 			"/>
		</g>
		<g id="XMLID_11668_">
			<polygon id="XMLID_9147_" fill="#00000A" points="179.6,151.2 163.3,142 163.3,151.2 			"/>
			<polygon id="XMLID_9029_" fill="#0A0A1C" points="216,151.2 216,130.8 199.4,121.4 163.3,142 179.6,151.2 			"/>
		</g>
		<g id="XMLID_11664_">
			<polygon id="XMLID_9030_" fill="#000014" points="199.4,151.2 199.4,121.4 163.3,100.9 163.3,142 179.6,151.2 			"/>
			<polygon id="XMLID_9148_" fill="#232333" points="216,151.2 216,112 199.4,121.4 199.4,151.2 			"/>
			<polygon id="XMLID_9032_" points="216,89.8 199.4,80.4 163.3,100.9 199.4,121.4 216,112 			"/>
		</g>
		<g id="XMLID_11660_">
			<polygon id="XMLID_11663_" fill="#0A0A1C" points="163.3,100.9 163.3,142 127.1,121.4 127.1,80.4 			"/>
			<polygon id="XMLID_11662_" points="163.3,100.9 199.4,80.4 199.4,121.4 163.3,142 			"/>
			<polygon id="XMLID_11661_" points="163.3,100.9 127.1,80.4 163.3,59.9 199.4,80.4 			"/>
		</g>
		<g id="XMLID_11656_">
			<polygon id="XMLID_11659_" fill="#232333" points="90.9,100.9 90.9,142 54.8,121.4 54.8,80.4 			"/>
			<polygon id="XMLID_11658_" points="90.9,100.9 127.1,80.4 127.1,121.4 90.9,142 			"/>
			<polygon id="XMLID_11657_" fill="#18182D" points="90.9,100.9 54.8,80.4 90.9,59.9 127.1,80.4 			"/>
		</g>
		<g id="XMLID_11652_">
			<polygon id="XMLID_11655_" fill="#272738" points="127.1,39.3 127.1,80.4 90.9,59.9 90.9,18.8 			"/>
			<polygon id="XMLID_11654_" fill="#141423" points="127.1,39.3 163.3,18.8 163.3,59.9 127.1,80.4 			"/>
			<polygon id="XMLID_9018_" fill="#2D2D40" points="124.1,0 90.9,18.8 127.1,39.3 163.3,18.8 130.1,0 			"/>
		</g>
		<g id="XMLID_11648_">
			<polygon id="XMLID_11651_" points="163.3,59.9 163.3,100.9 127.1,80.4 127.1,39.3 			"/>
			<polygon id="XMLID_11650_" points="163.3,59.9 199.4,39.3 199.4,80.4 163.3,100.9 			"/>
			<polygon id="XMLID_11649_" fill="#0A0A20" points="163.3,59.9 127.1,39.3 163.3,18.8 199.4,39.3 			"/>
		</g>
		<g id="XMLID_11644_">
			<polygon id="XMLID_11647_" fill="#0A0A20" points="90.9,59.9 90.9,100.9 54.8,80.4 54.8,39.3 			"/>
			<polygon id="XMLID_11646_" fill="#202030" points="90.9,59.9 127.1,39.3 127.1,80.4 90.9,100.9 			"/>
			<polygon id="XMLID_11645_" fill="#333345" points="90.9,59.9 54.8,39.3 90.9,18.8 127.1,39.3 			"/>
		</g>
		<g id="XMLID_11640_">
			<polygon id="XMLID_9031_" points="127.1,151.2 127.1,121.4 90.9,100.9 90.9,142 107.2,151.2 			"/>
			<polygon id="XMLID_9149_" fill="#232333" points="147,151.2 163.3,142 163.3,100.9 127.1,121.4 127.1,151.2 			"/>
			<polygon id="XMLID_11641_" points="127.1,121.4 90.9,100.9 127.1,80.4 163.3,100.9 			"/>
		</g>
		<g id="XMLID_11636_">
			<polygon id="XMLID_11639_" points="145.2,90.6 145.2,111.2 127.1,100.9 127.1,80.4 			"/>
			<polygon id="XMLID_11638_" points="145.2,90.6 163.3,80.4 163.3,100.9 145.2,111.2 			"/>
			<polygon id="XMLID_11637_" points="145.2,90.6 127.1,80.4 145.2,70.1 163.3,80.4 			"/>
		</g>
		<g id="XMLID_11632_">
			<polygon id="XMLID_11635_" fill="#2D2D40" points="109,90.6 109,111.2 90.9,100.9 90.9,80.4 			"/>
			<polygon id="XMLID_11634_" points="109,90.6 127.1,80.4 127.1,100.9 109,111.2 			"/>
			<polygon id="XMLID_11633_" fill="#3B3B4E" points="109,90.6 90.9,80.4 109,70.1 127.1,80.4 			"/>
		</g>
		<g id="XMLID_11628_">
			<polygon id="XMLID_11631_" fill="#47475B" points="127.1,59.9 127.1,80.4 109,70.1 109,49.6 			"/>
			<polygon id="XMLID_11630_" fill="#000018" points="127.1,59.9 145.2,49.6 145.2,70.1 127.1,80.4 			"/>
			<polygon id="XMLID_11629_" fill="#353547" points="127.1,59.9 109,49.6 127.1,39.3 145.2,49.6 			"/>
		</g>
		<g id="XMLID_11624_">
			<polygon id="XMLID_11627_" points="145.2,70.1 145.2,90.6 127.1,80.4 127.1,59.9 			"/>
			<polygon id="XMLID_11626_" points="145.2,70.1 163.3,59.9 163.3,80.4 145.2,90.6 			"/>
			<polygon id="XMLID_11625_" points="145.2,70.1 127.1,59.9 145.2,49.6 163.3,59.9 			"/>
		</g>
		<g id="XMLID_11620_">
			<polygon id="XMLID_11623_" fill="#353547" points="109,70.1 109,90.6 90.9,80.4 90.9,59.9 			"/>
			<polygon id="XMLID_11622_" fill="#2D2D3D" points="109,70.1 127.1,59.9 127.1,80.4 109,90.6 			"/>
			<polygon id="XMLID_11621_" fill="#2D2D3D" points="109,70.1 90.9,59.9 109,49.6 127.1,59.9 			"/>
		</g>
		<g id="XMLID_11616_">
			<polygon id="XMLID_11619_" points="127.1,100.9 127.1,121.4 109,111.2 109,90.6 			"/>
			<polygon id="XMLID_11618_" points="127.1,100.9 145.2,90.6 145.2,111.2 127.1,121.4 			"/>
			<polygon id="XMLID_11617_" points="127.1,100.9 109,90.6 127.1,80.4 145.2,90.6 			"/>
		</g>
		<g id="XMLID_11612_">
			<polygon id="XMLID_11615_" points="127.1,80.4 127.1,100.9 109,90.6 109,70.1 			"/>
			<polygon id="XMLID_11614_" points="127.1,80.4 145.2,70.1 145.2,90.6 127.1,100.9 			"/>
			<polygon id="XMLID_11613_" fill="#202030" points="127.1,80.4 109,70.1 127.1,59.9 145.2,70.1 			"/>
		</g>
		<g id="XMLID_11608_">
			<polygon id="XMLID_9150_" points="127.1,151.2 127.1,80.4 54.8,39.3 54.8,121.4 107.2,151.2 			"/>
			<polygon id="XMLID_9151_" points="147,151.2 199.4,121.4 199.4,39.3 127.1,80.4 127.1,151.2 			"/>
			<polygon id="XMLID_9137_" fill="#232335" points="124.1,0 54.8,39.3 127.1,80.4 199.4,39.3 130.1,0 			"/>
		</g>
		<g id="XMLID_11604_">
			<polygon id="XMLID_9152_" fill="#2D2D40" points="2.3,151.2 54.8,121.4 54.8,39.3 0,70.4 0,151.2 			"/>
			<polygon id="XMLID_8988_" fill="#57576B" points="0,8.3 0,70.4 54.8,39.3 			"/>
		</g>
		<g id="XMLID_11600_">
			<polygon id="XMLID_9138_" fill="#636778" points="0,0 0,8.3 54.8,39.3 54.8,0 			"/>
			<polygon id="XMLID_8989_" fill="#4E5061" points="54.8,0 54.8,39.3 124.1,0 			"/>
		</g>
		<g id="XMLID_11596_">
			<polygon id="XMLID_8990_" fill="#49495D" points="54.8,0 54.8,39.3 127.1,80.4 127.1,0 			"/>
			<polygon id="XMLID_9139_" fill="#202030" points="127.1,0 127.1,80.4 199.4,39.3 199.4,0 			"/>
		</g>
		<g id="XMLID_11592_">
			<polygon id="XMLID_9140_" fill="#5B5D6F" points="0,0 0,70.4 54.8,39.3 54.8,0 			"/>
		</g>
		<g id="XMLID_11588_">
			<polygon id="XMLID_8987_" fill="#202030" points="54.8,151.2 54.8,121.4 0,90.4 0,151.2 			"/>
			<polygon id="XMLID_8993_" fill="#00000A" points="127.1,151.2 127.1,80.4 54.8,121.4 54.8,151.2 			"/>
			<polygon id="XMLID_8994_" fill="#2D2D3D" points="54.8,39.3 0,70.4 0,90.4 54.8,121.4 127.1,80.4 			"/>
		</g>
		<g id="XMLID_11584_">
			<polygon id="XMLID_8995_" fill="#404052" points="0,8.3 0,90.4 54.8,121.4 54.8,39.3 			"/>
			<polygon id="XMLID_8991_" fill="#232335" points="124.1,0 54.8,39.3 54.8,121.4 127.1,80.4 127.1,0 			"/>
			<polygon id="XMLID_8992_" fill="#5D6171" points="0,0 0,8.3 54.8,39.3 124.1,0 			"/>
		</g>
		<g id="XMLID_11580_">
			<polygon id="XMLID_8996_" fill="#000018" points="199.4,0 199.4,39.3 216,48.7 216,0 			"/>
		</g>
		<g id="XMLID_11564_">
			<polygon id="XMLID_9033_" points="202.5,0 216,7.7 216,0 			"/>
		</g>
		<g id="XMLID_11560_">
			<polygon id="XMLID_9034_" fill="#18182D" points="130.1,0 163.3,18.8 163.3,0 			"/>
			<polygon id="XMLID_9035_" fill="#424255" points="163.3,0 163.3,18.8 196.4,0 			"/>
		</g>
		<g id="XMLID_11544_">
			<polygon id="XMLID_9036_" fill="#353547" points="163.3,0 163.3,18.8 199.4,39.3 199.4,0 			"/>
			<polygon id="XMLID_9037_" points="199.4,0 199.4,39.3 216,29.9 216,0 			"/>
		</g>
		<g id="XMLID_11536_">
			<polygon id="XMLID_9047_" fill="#18182D" points="216,48.7 199.4,39.3 199.4,121.4 216,130.8 			"/>
			<polygon id="XMLID_9048_" fill="#2D2D3D" points="216,29.9 199.4,39.3 216,48.7 			"/>
		</g>
		<g id="XMLID_11488_">
			<polygon id="XMLID_9049_" fill="#38384C" points="216,151.2 216,130.8 199.4,121.4 147,151.2 			"/>
		</g>
		<g id="XMLID_11444_">
			<polygon id="XMLID_8997_" points="54.8,151.2 54.8,121.4 2.3,151.2 			"/>
			<polygon id="XMLID_8998_" fill="#303042" points="2.3,151.2 54.8,121.4 0,90.4 0,151.2 			"/>
		</g>
		<g id="XMLID_11308_">
			<polygon id="XMLID_8999_" fill="#00000A" points="215.7,151.2 199.4,142 199.4,151.2 			"/>
			<polygon id="XMLID_9000_" fill="#18182D" points="216,151.2 216,132.6 199.4,142 215.7,151.2 			"/>
		</g>
		<g id="XMLID_11300_">
			<polygon id="XMLID_9001_" fill="#0A0A20" points="216,151.2 216,130.8 199.4,121.4 199.4,142 215.7,151.2 			"/>
			<polygon id="XMLID_9070_" fill="#000018" points="216,112 199.4,121.4 216,130.8 			"/>
		</g>
		<g id="XMLID_11060_">
			<polygon id="XMLID_9002_" fill="#18182D" points="107.2,151.2 90.9,142 74.6,151.2 			"/>
		</g>
		<g id="XMLID_11056_">
			<polygon id="XMLID_9050_" fill="#232335" points="163.3,151.2 163.3,142 127.1,121.4 127.1,151.2 			"/>
			<polygon id="XMLID_9051_" fill="#0A0A1C" points="199.4,151.2 199.4,121.4 163.3,142 163.3,151.2 			"/>
			<polygon id="XMLID_11057_" fill="#202030" points="163.3,142 127.1,121.4 163.3,100.9 199.4,121.4 			"/>
		</g>
		<g id="XMLID_11052_">
			<polygon id="XMLID_9052_" points="90.9,151.2 90.9,142 54.8,121.4 54.8,151.2 			"/>
			<polygon id="XMLID_9053_" fill="#232335" points="127.1,151.2 127.1,121.4 90.9,142 90.9,151.2 			"/>
			<polygon id="XMLID_11053_" points="90.9,142 54.8,121.4 90.9,100.9 127.1,121.4 			"/>
		</g>
		<g id="XMLID_11048_">
			<polygon id="XMLID_9054_" fill="#353547" points="107.2,151.2 90.9,142 90.9,151.2 			"/>
			<polygon id="XMLID_9055_" fill="#000018" points="163.3,151.2 163.3,142 147,151.2 			"/>
			<polygon id="XMLID_9056_" fill="#232335" points="147,151.2 163.3,142 127.1,121.4 90.9,142 107.2,151.2 			"/>
		</g>
		<g id="XMLID_11008_">
			<polygon id="XMLID_9003_" points="34.9,151.2 18.6,142 18.6,151.2 			"/>
			<polygon id="XMLID_9004_" points="90.9,151.2 90.9,142 74.6,151.2 			"/>
			<polygon id="XMLID_9057_" fill="#000014" points="74.6,151.2 90.9,142 54.8,121.4 18.6,142 34.9,151.2 			"/>
		</g>
		<g id="XMLID_11004_">
			<polygon id="XMLID_9058_" fill="#18182D" points="107.2,151.2 90.9,142 74.6,151.2 			"/>
		</g>
		<g id="XMLID_10984_">
			<polygon id="XMLID_9005_" fill="#2D2D40" points="34.9,151.2 18.6,142 2.3,151.2 			"/>
		</g>
		<g id="XMLID_10964_">
			<polygon id="XMLID_9006_" fill="#424255" points="145.2,151.2 145.2,131.7 127.1,121.4 127.1,142 143.4,151.2 			"/>
			<polygon id="XMLID_9007_" fill="#18182A" points="147,151.2 163.3,142 163.3,121.4 145.2,131.7 145.2,151.2 			"/>
			<polygon id="XMLID_10965_" fill="#232333" points="145.2,131.7 127.1,121.4 145.2,111.2 163.3,121.4 			"/>
		</g>
		<g id="XMLID_10960_">
			<polygon id="XMLID_9008_" fill="#0A0A20" points="109,151.2 109,131.7 90.9,121.4 90.9,142 107.2,151.2 			"/>
			<polygon id="XMLID_9059_" fill="#202030" points="110.8,151.2 127.1,142 127.1,121.4 109,131.7 109,151.2 			"/>
			<polygon id="XMLID_10961_" points="109,131.7 90.9,121.4 109,111.2 127.1,121.4 			"/>
		</g>
		<g id="XMLID_10956_">
			<polygon id="XMLID_10959_" points="127.1,100.9 127.1,121.4 109,111.2 109,90.6 			"/>
			<polygon id="XMLID_10958_" points="127.1,100.9 145.2,90.6 145.2,111.2 127.1,121.4 			"/>
			<polygon id="XMLID_10957_" points="127.1,100.9 109,90.6 127.1,80.4 145.2,90.6 			"/>
		</g>
		<g id="XMLID_10952_">
			<polygon id="XMLID_10955_" points="145.2,111.2 145.2,131.7 127.1,121.4 127.1,100.9 			"/>
			<polygon id="XMLID_10954_" fill="#2D2D40" points="145.2,111.2 163.3,100.9 163.3,121.4 145.2,131.7 			"/>
			<polygon id="XMLID_10953_" points="145.2,111.2 127.1,100.9 145.2,90.6 163.3,100.9 			"/>
		</g>
		<g id="XMLID_10948_">
			<polygon id="XMLID_10951_" points="109,111.2 109,131.7 90.9,121.4 90.9,100.9 			"/>
			<polygon id="XMLID_10950_" points="109,111.2 127.1,100.9 127.1,121.4 109,131.7 			"/>
			<polygon id="XMLID_10949_" points="109,111.2 90.9,100.9 109,90.6 127.1,100.9 			"/>
		</g>
		<g id="XMLID_10944_">
			<polygon id="XMLID_9060_" fill="#47475B" points="127.1,151.2 127.1,142 109,131.7 109,151.2 			"/>
			<polygon id="XMLID_9061_" fill="#303042" points="145.2,151.2 145.2,131.7 127.1,142 127.1,151.2 			"/>
			<polygon id="XMLID_10945_" fill="#18182D" points="127.1,142 109,131.7 127.1,121.4 145.2,131.7 			"/>
		</g>
		<g id="XMLID_10940_">
			<polygon id="XMLID_10943_" points="127.1,121.4 127.1,142 109,131.7 109,111.2 			"/>
			<polygon id="XMLID_10942_" fill="#303042" points="127.1,121.4 145.2,111.2 145.2,131.7 127.1,142 			"/>
			<polygon id="XMLID_10941_" points="127.1,121.4 109,111.2 127.1,100.9 145.2,111.2 			"/>
		</g>
		<g id="XMLID_10932_">
			<polygon id="XMLID_9038_" fill="#00000A" points="199.4,0 199.4,39.3 216,48.7 216,7.7 202.4,0 			"/>
			<polygon id="XMLID_9039_" points="202.4,0 216,7.7 216,0 			"/>
		</g>
		<g id="XMLID_10920_">
			<polygon id="XMLID_9040_" points="202.4,0 216,7.7 216,0 			"/>
		</g>
		<g id="XMLID_10912_">
			<polygon id="XMLID_9041_" fill="#3B3B4E" points="127.1,0 127.1,39.3 163.3,59.9 163.3,18.8 130.1,0 			"/>
			<polygon id="XMLID_9042_" fill="#000018" points="196.4,0 163.3,18.8 163.3,59.9 199.4,39.3 199.4,0 			"/>
			<polygon id="XMLID_9043_" fill="#3D3D50" points="130.1,0 163.3,18.8 196.4,0 			"/>
		</g>
		<g id="XMLID_10908_">
			<polygon id="XMLID_9044_" fill="#18182D" points="130.1,0 163.3,18.8 163.3,0 			"/>
			<polygon id="XMLID_9045_" fill="#424255" points="163.3,0 163.3,18.8 196.4,0 			"/>
		</g>
		<g id="XMLID_10904_">
			<polygon id="XMLID_9046_" fill="#656D7A" points="57.8,0 90.9,18.8 90.9,0 			"/>
			<polygon id="XMLID_9071_" fill="#505063" points="90.9,0 90.9,18.8 124.1,0 			"/>
		</g>
		<g id="XMLID_10900_">
			<polygon id="XMLID_10903_" fill="#272738" points="127.1,39.3 127.1,80.4 90.9,59.9 90.9,18.8 			"/>
			<polygon id="XMLID_10902_" fill="#141423" points="127.1,39.3 163.3,18.8 163.3,59.9 127.1,80.4 			"/>
			<polygon id="XMLID_9072_" fill="#2D2D40" points="124.1,0 90.9,18.8 127.1,39.3 163.3,18.8 130.1,0 			"/>
		</g>
		<g id="XMLID_10896_">
			<polygon id="XMLID_9073_" fill="#3B3B4E" points="90.9,0 90.9,18.8 127.1,39.3 127.1,0 			"/>
			<polygon id="XMLID_9074_" fill="#2D2D3D" points="127.1,0 127.1,39.3 163.3,18.8 163.3,0 			"/>
		</g>
		<g id="XMLID_10892_">
			<polygon id="XMLID_9062_" points="90.9,151.2 90.9,142 54.8,121.4 54.8,151.2 			"/>
			<polygon id="XMLID_9063_" fill="#232335" points="127.1,151.2 127.1,121.4 90.9,142 90.9,151.2 			"/>
			<polygon id="XMLID_10893_" points="90.9,142 54.8,121.4 90.9,100.9 127.1,121.4 			"/>
		</g>
		<g id="XMLID_10888_">
			<polygon id="XMLID_10891_" fill="#272738" points="54.8,80.4 54.8,121.4 18.6,100.9 18.6,59.9 			"/>
			<polygon id="XMLID_10890_" fill="#18182A" points="54.8,80.4 90.9,59.9 90.9,100.9 54.8,121.4 			"/>
			<polygon id="XMLID_10889_" fill="#3D3D50" points="54.8,80.4 18.6,59.9 54.8,39.3 90.9,59.9 			"/>
		</g>
		<g id="XMLID_10884_">
			<polygon id="XMLID_9009_" fill="#333345" points="0,90.4 0,131.4 18.6,142 18.6,100.9 			"/>
			<polygon id="XMLID_10886_" fill="#18182D" points="18.6,100.9 54.8,80.4 54.8,121.4 18.6,142 			"/>
			<polygon id="XMLID_9010_" fill="#424255" points="18.6,59.9 0,70.4 0,90.4 18.6,100.9 54.8,80.4 			"/>
		</g>
		<g id="XMLID_10880_">
			<polygon id="XMLID_9064_" points="34.9,151.2 18.6,142 18.6,151.2 			"/>
			<polygon id="XMLID_9065_" points="90.9,151.2 90.9,142 74.6,151.2 			"/>
			<polygon id="XMLID_9066_" fill="#000014" points="74.6,151.2 90.9,142 54.8,121.4 18.6,142 34.9,151.2 			"/>
		</g>
		<g id="XMLID_10876_">
			<polygon id="XMLID_9067_" fill="#202030" points="54.8,151.2 54.8,121.4 18.6,100.9 18.6,142 34.9,151.2 			"/>
			<polygon id="XMLID_9068_" points="74.6,151.2 90.9,142 90.9,100.9 54.8,121.4 54.8,151.2 			"/>
			<polygon id="XMLID_10877_" fill="#000018" points="54.8,121.4 18.6,100.9 54.8,80.4 90.9,100.9 			"/>
		</g>
		<g id="XMLID_10872_">
			<polygon id="XMLID_9069_" fill="#424255" points="34.9,151.2 18.6,142 18.6,151.2 			"/>
			<polygon id="XMLID_9153_" points="54.8,151.2 54.8,142 38.5,151.2 			"/>
			<polygon id="XMLID_9154_" fill="#424255" points="38.5,151.2 54.8,142 36.7,131.7 18.6,142 34.9,151.2 			"/>
		</g>
		<g id="XMLID_10868_">
			<polygon id="XMLID_9011_" fill="#202030" points="18.6,151.2 18.6,142 2.3,151.2 			"/>
			<polygon id="XMLID_9155_" fill="#18182D" points="2.3,151.2 18.6,142 0.5,131.7 0,132 0,151.2 			"/>
		</g>
		<g id="XMLID_10864_">
			<polygon id="XMLID_10867_" fill="#141423" points="18.6,121.4 18.6,142 0.5,131.7 0.5,111.2 			"/>
			<polygon id="XMLID_10866_" fill="#00000A" points="18.6,121.4 36.7,111.2 36.7,131.7 18.6,142 			"/>
			<polygon id="XMLID_10865_" fill="#272738" points="18.6,121.4 0.5,111.2 18.6,100.9 36.7,111.2 			"/>
		</g>
		<g id="XMLID_10860_">
			<polygon id="XMLID_9012_" fill="#0A0A1C" points="36.7,151.2 36.7,131.7 18.6,121.4 18.6,142 34.9,151.2 			"/>
			<polygon id="XMLID_9156_" fill="#454557" points="38.5,151.2 54.8,142 54.8,121.4 36.7,131.7 36.7,151.2 			"/>
			<polygon id="XMLID_10861_" points="36.7,131.7 18.6,121.4 36.7,111.2 54.8,121.4 			"/>
		</g>
		<g id="XMLID_10856_">
			<polygon id="XMLID_9157_" fill="#38384C" points="0.5,151.2 0.5,131.7 0,131.4 0,151.2 			"/>
			<polygon id="XMLID_9013_" points="2.3,151.2 18.6,142 18.6,121.4 0.5,131.7 0.5,151.2 			"/>
			<polygon id="XMLID_9014_" fill="#38384C" points="0.5,111.2 0,111.5 0,131.4 0.5,131.7 18.6,121.4 			"/>
		</g>
		<g id="XMLID_10852_">
			<polygon id="XMLID_9158_" fill="#2D2D40" points="34.9,151.2 18.6,142 2.3,151.2 			"/>
		</g>
		<g id="XMLID_10848_">
			<polygon id="XMLID_9159_" points="18.6,151.2 18.6,142 0.5,131.7 0.5,151.2 			"/>
			<polygon id="XMLID_9160_" fill="#333345" points="36.7,151.2 36.7,131.7 18.6,142 18.6,151.2 			"/>
			<polygon id="XMLID_10849_" points="18.6,142 0.5,131.7 18.6,121.4 36.7,131.7 			"/>
		</g>
		<g id="XMLID_10608_">
			<polygon id="XMLID_10611_" fill="#303042" points="109,29.1 109,49.6 90.9,39.3 90.9,18.8 			"/>
			<polygon id="XMLID_10610_" fill="#2D2D40" points="109,29.1 127.1,18.8 127.1,39.3 109,49.6 			"/>
			<polygon id="XMLID_10609_" fill="#2D2D40" points="109,29.1 90.9,18.8 109,8.6 127.1,18.8 			"/>
		</g>
		<g id="XMLID_10604_">
			<polygon id="XMLID_10607_" fill="#49495D" points="72.8,29.1 72.8,49.6 54.8,39.3 54.8,18.8 			"/>
			<polygon id="XMLID_10606_" fill="#333345" points="72.8,29.1 90.9,18.8 90.9,39.3 72.8,49.6 			"/>
			<polygon id="XMLID_10605_" fill="#454557" points="72.8,29.1 54.8,18.8 72.8,8.6 90.9,18.8 			"/>
		</g>
		<g id="XMLID_10600_">
			<polygon id="XMLID_9099_" fill="#717886" points="72.8,0 72.8,8.6 90.9,18.8 90.9,0 			"/>
			<polygon id="XMLID_9100_" fill="#454557" points="90.9,0 90.9,18.8 109,8.6 109,0 			"/>
		</g>
		<g id="XMLID_10596_">
			<polygon id="XMLID_9101_" fill="#424255" points="90.9,0 90.9,18.8 109,29.1 109,8.6 94,0 			"/>
			<polygon id="XMLID_9102_" fill="#333345" points="124.1,0 109,8.6 109,29.1 127.1,18.8 127.1,0 			"/>
			<polygon id="XMLID_9103_" fill="#424255" points="94,0 109,8.6 124.1,0 			"/>
		</g>
		<g id="XMLID_10592_">
			<polygon id="XMLID_9104_" fill="#595B6D" points="54.8,0 54.8,18.8 72.8,29.1 72.8,8.6 57.8,0 			"/>
			<polygon id="XMLID_9105_" fill="#5F6375" points="87.9,0 72.8,8.6 72.8,29.1 90.9,18.8 90.9,0 			"/>
			<polygon id="XMLID_9106_" fill="#575B6B" points="57.8,0 72.8,8.6 87.9,0 			"/>
		</g>
		<g id="XMLID_10588_">
			<polygon id="XMLID_10591_" fill="#232335" points="90.9,39.3 90.9,59.9 72.8,49.6 72.8,29.1 			"/>
			<polygon id="XMLID_10590_" fill="#2D2D40" points="90.9,39.3 109,29.1 109,49.6 90.9,59.9 			"/>
			<polygon id="XMLID_10589_" fill="#38384C" points="90.9,39.3 72.8,29.1 90.9,18.8 109,29.1 			"/>
		</g>
		<g id="XMLID_10584_">
			<polygon id="XMLID_10587_" fill="#454557" points="90.9,18.8 90.9,39.3 72.8,29.1 72.8,8.6 			"/>
			<polygon id="XMLID_10586_" fill="#38384C" points="90.9,18.8 109,8.6 109,29.1 90.9,39.3 			"/>
			<polygon id="XMLID_9107_" fill="#525265" points="87.9,0 72.8,8.6 90.9,18.8 109,8.6 94,0 			"/>
		</g>
		<g id="XMLID_10580_">
			<polygon id="XMLID_10583_" points="109,111.2 109,131.7 90.9,121.4 90.9,100.9 			"/>
			<polygon id="XMLID_10582_" points="109,111.2 127.1,100.9 127.1,121.4 109,131.7 			"/>
			<polygon id="XMLID_10581_" points="109,111.2 90.9,100.9 109,90.6 127.1,100.9 			"/>
		</g>
		<g id="XMLID_10576_">
			<polygon id="XMLID_10579_" fill="#232333" points="72.8,111.2 72.8,131.7 54.8,121.4 54.8,100.9 			"/>
			<polygon id="XMLID_10578_" fill="#000014" points="72.8,111.2 90.9,100.9 90.9,121.4 72.8,131.7 			"/>
			<polygon id="XMLID_10577_" fill="#202030" points="72.8,111.2 54.8,100.9 72.8,90.6 90.9,100.9 			"/>
		</g>
		<g id="XMLID_10572_">
			<polygon id="XMLID_10575_" fill="#18182A" points="90.9,80.4 90.9,100.9 72.8,90.6 72.8,70.1 			"/>
			<polygon id="XMLID_10574_" fill="#3B3B4E" points="90.9,80.4 109,70.1 109,90.6 90.9,100.9 			"/>
			<polygon id="XMLID_10573_" points="90.9,80.4 72.8,70.1 90.9,59.9 109,70.1 			"/>
		</g>
		<g id="XMLID_10568_">
			<polygon id="XMLID_10571_" fill="#2D2D40" points="109,90.6 109,111.2 90.9,100.9 90.9,80.4 			"/>
			<polygon id="XMLID_10570_" points="109,90.6 127.1,80.4 127.1,100.9 109,111.2 			"/>
			<polygon id="XMLID_10569_" fill="#3B3B4E" points="109,90.6 90.9,80.4 109,70.1 127.1,80.4 			"/>
		</g>
		<g id="XMLID_10564_">
			<polygon id="XMLID_10567_" points="72.8,90.6 72.8,111.2 54.8,100.9 54.8,80.4 			"/>
			<polygon id="XMLID_10566_" fill="#38384C" points="72.8,90.6 90.9,80.4 90.9,100.9 72.8,111.2 			"/>
			<polygon id="XMLID_10565_" fill="#00000A" points="72.8,90.6 54.8,80.4 72.8,70.1 90.9,80.4 			"/>
		</g>
		<g id="XMLID_10560_">
			<polygon id="XMLID_10563_" points="90.9,121.4 90.9,142 72.8,131.7 72.8,111.2 			"/>
			<polygon id="XMLID_10562_" points="90.9,121.4 109,111.2 109,131.7 90.9,142 			"/>
			<polygon id="XMLID_10561_" points="90.9,121.4 72.8,111.2 90.9,100.9 109,111.2 			"/>
		</g>
		<g id="XMLID_10556_">
			<polygon id="XMLID_10559_" fill="#3B3B4E" points="90.9,100.9 90.9,121.4 72.8,111.2 72.8,90.6 			"/>
			<polygon id="XMLID_10558_" points="90.9,100.9 109,90.6 109,111.2 90.9,121.4 			"/>
			<polygon id="XMLID_10557_" fill="#404052" points="90.9,100.9 72.8,90.6 90.9,80.4 109,90.6 			"/>
		</g>
		<g id="XMLID_10524_">
			<polygon id="XMLID_9109_" fill="#18182D" points="216,48.7 199.4,39.3 199.4,80.4 216,89.8 			"/>
			<polygon id="XMLID_9110_" fill="#232335" points="216,29.9 199.4,39.3 216,48.7 			"/>
		</g>
		<g id="XMLID_10520_">
			<polygon id="XMLID_10523_" points="163.3,59.9 163.3,100.9 127.1,80.4 127.1,39.3 			"/>
			<polygon id="XMLID_10522_" points="163.3,59.9 199.4,39.3 199.4,80.4 163.3,100.9 			"/>
			<polygon id="XMLID_10521_" fill="#0A0A20" points="163.3,59.9 127.1,39.3 163.3,18.8 199.4,39.3 			"/>
		</g>
		<g id="XMLID_10516_">
			<polygon id="XMLID_9108_" fill="#353547" points="163.3,0 163.3,18.8 199.4,39.3 199.4,0 			"/>
			<polygon id="XMLID_9141_" points="199.4,0 199.4,39.3 216,29.9 216,0 			"/>
		</g>
		<g id="XMLID_10512_">
			<polygon id="XMLID_9111_" fill="#00000A" points="199.4,0 199.4,39.3 216,48.7 216,7.7 202.5,0 			"/>
			<polygon id="XMLID_9112_" points="202.5,0 216,7.7 216,0 			"/>
		</g>
		<g id="XMLID_10508_">
			<polygon id="XMLID_9113_" fill="#3B3B4E" points="127.1,0 127.1,39.3 163.3,59.9 163.3,18.8 130.1,0 			"/>
			<polygon id="XMLID_9114_" fill="#000018" points="196.4,0 163.3,18.8 163.3,59.9 199.4,39.3 199.4,0 			"/>
			<polygon id="XMLID_9142_" fill="#3D3D50" points="130.1,0 163.3,18.8 196.4,0 			"/>
		</g>
		<g id="XMLID_10504_">
			<polygon id="XMLID_9115_" fill="#2D2D40" points="216,48.7 199.4,39.3 199.4,59.9 216,69.3 			"/>
			<polygon id="XMLID_9116_" fill="#141423" points="216,29.9 199.4,39.3 216,48.7 			"/>
		</g>
		<g id="XMLID_10500_">
			<polygon id="XMLID_10503_" points="181.3,49.6 181.3,70.1 163.3,59.9 163.3,39.3 			"/>
			<polygon id="XMLID_10502_" points="181.3,49.6 199.4,39.3 199.4,59.9 181.3,70.1 			"/>
			<polygon id="XMLID_10501_" points="181.3,49.6 163.3,39.3 181.3,29.1 199.4,39.3 			"/>
		</g>
		<g id="XMLID_10496_">
			<polygon id="XMLID_10499_" points="199.4,18.8 199.4,39.3 181.3,29.1 181.3,8.6 			"/>
			<polygon id="XMLID_9117_" points="216,9.4 199.4,18.8 199.4,39.3 216,29.9 			"/>
			<polygon id="XMLID_9143_" points="196.4,0 181.3,8.6 199.4,18.8 216,9.4 216,7.7 202.5,0 			"/>
		</g>
		<g id="XMLID_10492_">
			<polygon id="XMLID_9119_" points="216,28.2 199.4,18.8 199.4,39.3 216,48.7 			"/>
			<polygon id="XMLID_9120_" points="216,9.4 199.4,18.8 216,28.2 			"/>
		</g>
		<g id="XMLID_10488_">
			<polygon id="XMLID_10491_" points="181.3,29.1 181.3,49.6 163.3,39.3 163.3,18.8 			"/>
			<polygon id="XMLID_10490_" points="181.3,29.1 199.4,18.8 199.4,39.3 181.3,49.6 			"/>
			<polygon id="XMLID_10489_" fill="#18182D" points="181.3,29.1 163.3,18.8 181.3,8.6 199.4,18.8 			"/>
		</g>
		<g id="XMLID_10484_">
			<polygon id="XMLID_10487_" points="199.4,59.9 199.4,80.4 181.3,70.1 181.3,49.6 			"/>
			<polygon id="XMLID_9121_" fill="#0A0A1C" points="216,50.5 199.4,59.9 199.4,80.4 216,71 			"/>
			<polygon id="XMLID_9122_" points="216,48.7 199.4,39.3 181.3,49.6 199.4,59.9 216,50.5 			"/>
		</g>
		<g id="XMLID_10480_">
			<polygon id="XMLID_10483_" points="199.4,39.3 199.4,59.9 181.3,49.6 181.3,29.1 			"/>
			<polygon id="XMLID_9123_" fill="#00000A" points="216,29.9 199.4,39.3 199.4,59.9 216,50.5 			"/>
			<polygon id="XMLID_9124_" points="216,28.2 199.4,18.8 181.3,29.1 199.4,39.3 216,29.9 			"/>
		</g>
		<g id="XMLID_10420_">
			<polygon id="XMLID_9125_" fill="#232335" points="216,89.8 199.4,80.4 199.4,100.9 216,110.3 			"/>
			<polygon id="XMLID_9126_" fill="#18182D" points="216,71 199.4,80.4 216,89.8 			"/>
		</g>
		<g id="XMLID_10416_">
			<polygon id="XMLID_10419_" fill="#2D2D3D" points="181.3,90.6 181.3,111.2 163.3,100.9 163.3,80.4 			"/>
			<polygon id="XMLID_10418_" points="181.3,90.6 199.4,80.4 199.4,100.9 181.3,111.2 			"/>
			<polygon id="XMLID_10417_" fill="#18182A" points="181.3,90.6 163.3,80.4 181.3,70.1 199.4,80.4 			"/>
		</g>
		<g id="XMLID_10412_">
			<polygon id="XMLID_10415_" points="199.4,59.9 199.4,80.4 181.3,70.1 181.3,49.6 			"/>
			<polygon id="XMLID_9127_" fill="#0A0A1C" points="216,50.5 199.4,59.9 199.4,80.4 216,71 			"/>
			<polygon id="XMLID_9128_" points="216,48.7 199.4,39.3 181.3,49.6 199.4,59.9 216,50.5 			"/>
		</g>
		<g id="XMLID_10408_">
			<polygon id="XMLID_9129_" points="216,69.3 199.4,59.9 199.4,80.4 216,89.8 			"/>
			<polygon id="XMLID_9130_" fill="#232333" points="216,50.5 199.4,59.9 216,69.3 			"/>
		</g>
		<g id="XMLID_10404_">
			<polygon id="XMLID_10407_" points="181.3,70.1 181.3,90.6 163.3,80.4 163.3,59.9 			"/>
			<polygon id="XMLID_10406_" fill="#141423" points="181.3,70.1 199.4,59.9 199.4,80.4 181.3,90.6 			"/>
			<polygon id="XMLID_10405_" points="181.3,70.1 163.3,59.9 181.3,49.6 199.4,59.9 			"/>
		</g>
		<g id="XMLID_10400_">
			<polygon id="XMLID_10403_" points="199.4,100.9 199.4,121.4 181.3,111.2 181.3,90.6 			"/>
			<polygon id="XMLID_9131_" fill="#000018" points="216,91.5 199.4,100.9 199.4,121.4 216,112 			"/>
			<polygon id="XMLID_9132_" points="216,89.8 199.4,80.4 181.3,90.6 199.4,100.9 216,91.5 			"/>
		</g>
		<g id="XMLID_10396_">
			<polygon id="XMLID_10399_" points="199.4,80.4 199.4,100.9 181.3,90.6 181.3,70.1 			"/>
			<polygon id="XMLID_9133_" points="216,71 199.4,80.4 199.4,100.9 216,91.5 			"/>
			<polygon id="XMLID_9134_" fill="#18182D" points="216,69.3 199.4,59.9 181.3,70.1 199.4,80.4 216,71 			"/>
		</g>
		<g id="XMLID_10356_">
			<polygon id="XMLID_9075_" fill="#0A0A20" points="179.6,151.2 163.3,142 147,151.2 			"/>
		</g>
	</g>
	<radialGradient id="XMLID_2_" cx="172.8711" cy="217.3334" r="227.0989" gradientUnits="userSpaceOnUse">
		<stop  offset="0.3724" style="stop-color:#FCFCFC"/>
		<stop  offset="0.4262" style="stop-color:#F2F2F2"/>
		<stop  offset="0.5164" style="stop-color:#D8D8D8"/>
		<stop  offset="0.632" style="stop-color:#AEAEAE"/>
		<stop  offset="0.7684" style="stop-color:#737373"/>
		<stop  offset="0.9206" style="stop-color:#292929"/>
		<stop  offset="1" style="stop-color:#000000"/>
		<a:midPointStop  offset="0.3724" style="stop-color:#FCFCFC"/>
		<a:midPointStop  offset="0.5937" style="stop-color:#FCFCFC"/>
		<a:midPointStop  offset="1" style="stop-color:#000000"/>
	</radialGradient>
	<rect id="XMLID_8964_" opacity="0.98" fill="url(#XMLID_2_)"  a:adobe-blending-mode="multiply" width="216" height="151.2"/>
</g>
</svg>
